# xmcd
#
# Track frame offsets: 
#        182
#        21835
#        38420
#        52695
#        65740
#        84060
#        102890
#        118567
#        136050
#        143125
#        155182
#        176080
#        191677
#        205915
#        228120
#        239635
#
# Disc length: 3391 seconds
#
# Revision: 3
# Processed by: cddbd v1.5.2PL0 Copyright (c) Steve Scherf et al.
# Submitted via: ExactAudioCopy v0.99pb5
#
DISCID=d00d3d10
DTITLE=Various Artist - The Total Blues Collection Volume 2
DYEAR=1992
DGENRE=Blues
TTITLE0=Gary Moore - Still Got The Blues
TTITLE1=Cat Music - I Need All Your Lovin'
TTITLE2=E. Wilsons - How Blue Can You Get
TTITLE3=Q. Peep - I've Got The Blues For You
TTITLE4=E. Clapton and A. Galuten - Peaches And Diesel
TTITLE5=Bono and U2 - When Love Comes To Town
TTITLE6=E. Wilsons - I'm Begging (Don't Ever Leave Me)
TTITLE7=R. Johnson and E. Clapton - Crossroads
TTITLE8=D. Kirwan - Jigsaw Puzzle Blues
TTITLE9=E. Wilsons - Play The Blues
TTITLE10=R. Van Den Nieuwendijk, J. Vinkestijn and E. Van Prehn - Now Is
TTITLE10=The Right Time
TTITLE11=E. Wilsons - Don't Leave Me Baby
TTITLE12=F. Fabrizzi - I'm Burning
TTITLE13=G. Lottoni - I Ain't Got No Money
TTITLE14=E. Wilsons - How Many More Nights
TTITLE15=G. V, D Post and A. Adams-Fleisner - I'm In The Mood For The M
TTITLE15=idnight Blues
EXTD=
EXTT0=
EXTT1=
EXTT2=
EXTT3=
EXTT4=
EXTT5=
EXTT6=
EXTT7=
EXTT8=
EXTT9=
EXTT10=
EXTT11=
EXTT12=
EXTT13=
EXTT14=
EXTT15=
PLAYORDER=
